PathFileType	4	(X/Y/Z)	/Users/niels/Desktop/University/Third Semester/Perception and Action/Exam/Gymnastics Motion Tracking/Code for Gym Tracking/Analyzed Data/Webcam_Backflip/id2002_2_trajectory_Sports2D/id2002_2_trajectory_Sports2D_px_person00.trc
DataRate	CameraRate	NumFrames	NumMarkers	Units	OrigDataRate	OrigDataStartFrame	OrigNumFrames
29.798657718120804	29.798657718120804	14	22	m	29.798657718120804	0	149
Frame#	Time	Hip			RHip			RKnee			RAnkle			RBigToe			RSmallToe			RHeel			LHip			LKnee			LAnkle			LBigToe			LSmallToe			LHeel			Neck			Head			Nose			RShoulder			RElbow			RWrist			LShoulder			LElbow			LWrist		
		X1	Y1	Z1	X2	Y2	Z2	X3	Y3	Z3	X4	Y4	Z4	X5	Y5	Z5	X6	Y6	Z6	X7	Y7	Z7	X8	Y8	Z8	X9	Y9	Z9	X10	Y10	Z10	X11	Y11	Z11	X12	Y12	Z12	X13	Y13	Z13	X14	Y14	Z14	X15	Y15	Z15	X16	Y16	Z16	X17	Y17	Z17	X18	Y18	Z18	X19	Y19	Z19	X20	Y20	Z20	X21	Y21	Z21	X22	Y22	Z22
0	0.0	1.0233546243248226	-0.6829199638734029	0.0	1.0441883197152506	-0.690724729466809	0.0	1.1353350431136824	-1.0555035379322342	0.0	0.9253381347657168	-1.0891823730468981	0.0			0.0			0.0			0.0	1.0025280823034255	-0.6933416923205773	0.0	1.0833315091322482	-1.042489759255947	0.0	0.8984153669352154	-1.088365744723889	0.0			0.0			0.0	0.74603759765625	-1.06143896484375	0.0	1.0780750491285027	-0.1435325343477735	0.0	1.18750224445958	-0.13571067824784855	0.0	1.2291823439854996	0.020595702941221795	0.0	1.0962797936653306	-0.11231974401826635	0.0	1.0727892043618152	-0.4484110977198087	0.0	1.2838193537424745	-0.6829509786242914	0.0	1.0311803370578299	-0.11753437358398833	0.0	1.0494088212154224	-0.4249704057473519	0.0	1.2161657241859507	-0.3884904355893561	0.0
1	0.03355855855855856	1.0250614667161608	-0.6812388607225895	0.0	1.0459029947713767	-0.6903638681459114	0.0	1.1300307982280497	-1.05484908455781	0.0	0.9253381347657097	-1.0891823730468935	0.0			0.0			0.0			0.0	1.0142400419354698	-0.6925078374020108	0.0	1.0839089434968256	-1.0425906063160277	0.0	0.8984154969856656	-1.0883658131699914	0.0			0.0			0.0	0.74603759765625	-1.06143896484375	0.0	1.0820369439648947	-0.1366203926608729	0.0	1.1928206147603713	-0.12345717452146389	0.0	1.2310648660243142	0.021068118099983647	0.0	1.0971034026637303	-0.11343549088109506	0.0	1.0828585266152801	-0.4482572649024797	0.0	1.2960000713417361	-0.6696348972910671	0.0	1.0363665145445782	-0.11690934372307234	0.0	1.0584003758922464	-0.4263591952898464	0.0	1.2181376930385854	-0.3867432558077281	0.0
2	0.06711711711711713	1.0269282554639458	-0.6799983605892921	0.0	1.0472137874594871	-0.6904037420519191	0.0	1.1250353842442993	-1.0542646229307215	0.0	0.9253381347656372	-1.0891823730468704	0.0			0.0			0.0			0.0	1.0264594201423203	-0.692065472253635	0.0	1.0854132728261796	-1.04260729156073	0.0	0.8984157520829249	-1.0883659198158613	0.0			0.0			0.0	0.74603759765625	-1.06143896484375	0.0	1.0859184296196582	-0.13065959599717378	0.0	1.1965090775989429	-0.1072010922915093	0.0	1.2326660036935653	0.021423109107032705	0.0	1.0967569688031922	-0.11478313463267188	0.0	1.091641503880417	-0.44832351649421315	0.0	1.3074869585985978	-0.6565935579209515	0.0	1.0423970542288905	-0.11780144167923912	0.0	1.0678966082754688	-0.4275963697973872	0.0	1.2201085406535945	-0.3854057084735504	0.0
3	0.10067567567567569	1.0289554679972803	-0.6794030596709292	0.0	1.0478948609062058	-0.6910786856907927	0.0	1.1202031277771658	-1.053851145171399	0.0	0.9253381347654539	-1.0891823730468175	0.0			0.0			0.0			0.0	1.0389279072365611	-0.6922930286849868	0.0	1.088174516028684	-1.0426245387053257	0.0	0.8984161433622809	-1.08836604929222	0.0			0.0			0.0	0.74603759765625	-1.06143896484375	0.0	1.0894942892048878	-0.12611374819054672	0.0	1.1981378486251146	-0.0854185669813656	0.0	1.233615060043925	0.0212540646301487	0.0	1.0946089739337033	-0.11659193603066369	0.0	1.0981116483991242	-0.4488242104211383	0.0	1.317662120150124	-0.6441705268506205	0.0	1.0496845994875195	-0.12111738581114703	0.0	1.077774214437039	-0.42872243759199546	0.0	1.2220833957561097	-0.38485394120138033	0.0
4	0.13423423423423425	1.031036369726636	-0.6794058513007641	0.0	1.0479574224366648	-0.6923770354234794	0.0	1.115025661109546	-1.0537293123364964	0.0	0.9253381347651218	-1.0891823730467274	0.0			0.0			0.0			0.0	1.0508384374138005	-0.6932429684299037	0.0	1.092152663037846	-1.0428340310884259	0.0	0.8984166087854203	-1.0883661494446513	0.0			0.0			0.0	0.74603759765625	-1.06143896484375	0.0	1.0923613755486472	-0.12307062873813253	0.0	1.1984771823625777	-0.06087260960980028	0.0	1.2335590205171099	0.019963503322402862	0.0	1.090686208140226	-0.11904086387321271	0.0	1.101698935625177	-0.4498919144645649	0.0	1.3260993138279948	-0.6327919788679928	0.0	1.058182434589602	-0.12686448207053483	0.0	1.0873720625897398	-0.42980609780155143	0.0	1.2240282997590228	-0.38523556240924456	0.0
5	0.1677927927927928	1.0331019234843806	-0.679846190120676	0.0	1.0474481354643714	-0.6940969566573055	0.0	1.109167332033449	-1.0539613985587013	0.0	0.9253381347646464	-1.0891823730466057	0.0			0.0			0.0			0.0	1.0615297806559116	-0.694727274854175	0.0	1.097326063612581	-1.0433444388584534	0.0	0.8984169496034267	-1.0883661130976925	0.0			0.0			0.0	0.74603759765625	-1.06143896484375	0.0	1.094071648060818	-0.12158689316119799	0.0	1.1983844396219638	-0.03904269880598644	0.0	1.2322778956172646	0.017221169087730907	0.0	1.0852549831710312	-0.12230750566035221	0.0	1.1021861810347242	-0.4514868534105937	0.0	1.3324741302571845	-0.6229040264262038	0.0	1.0677194456602546	-0.13446689032010295	0.0	1.0960004997988972	-0.4307474517235993	0.0	1.2258330941522981	-0.38635688348338115	0.0
6	0.20135135135135138	1.0351248671777156	-0.680520560790313	0.0	1.0462828910679571	-0.6958948246985482	0.0	1.1027745627040677	-1.0544632094268813	0.0	0.9253381347641346	-1.089182373046487	0.0			0.0			0.0			0.0	1.0706815688757518	-0.6963975232010271	0.0	1.1035650318081096	-1.0440872042356348	0.0	0.898416765798898	-1.0883657698424891	0.0			0.0			0.0	0.74603759765625	-1.06143896484375	0.0	1.094325188202938	-0.12178497398194184	0.0	1.1979871811131104	-0.023932875648541026	0.0	1.2296689664398999	0.013325788290339024	0.0	1.0785373296075502	-0.12654825670188694	0.0	1.0995540587583688	-0.45341681865120487	0.0	1.3364218953500624	-0.6148629543710833	0.0	1.0780351183234262	-0.1432386879549847	0.0	1.1031475133543107	-0.4314423491603271	0.0	1.2273639385983983	-0.3878593606462426	0.0
7	0.23490990990990995	1.0370119355883227	-0.6812046439276206	0.0	1.0443411788560373	-0.6973550431238268	0.0	1.0962642911615843	-1.0550468836737508	0.0	0.9253381347638692	-1.0891823730464527	0.0			0.0			0.0			0.0	1.0780388209108087	-0.697885558534583	0.0	1.110368085663973	-1.0449225304265546	0.0	0.8984154312522259	-1.0883649074741077	0.0			0.0			0.0	0.74603759765625	-1.06143896484375	0.0	1.0930151229271463	-0.12373407936136516	0.0	1.1967348785687446	-0.01597806227758035	0.0	1.2256015140123786	0.009044268077733746	0.0	1.070701726714353	-0.13180202865047994	0.0	1.0939013336351446	-0.4554682945818636	0.0	1.3375180983662638	-0.608937468653051	0.0	1.0882711315588938	-0.15266388839609954	0.0	1.1083585510965188	-0.4320757556984465	0.0	1.2285240872983316	-0.3894686576245001	0.0
8	0.2684684684684685	1.038548407418277	-0.6817487411576455	0.0	1.0416020895603664	-0.6982223807490419	0.0	1.0899870526433317	-1.0555781711529897	0.0	0.9253381347643741	-1.0891823730466463	0.0			0.0			0.0			0.0	1.0832390986371256	-0.698996513313733	0.0	1.1168823297376067	-1.0458353612540556	0.0	0.8984121813706767	-1.0883633512421416	0.0			0.0			0.0	0.74603759765625	-1.06143896484375	0.0	1.0902030872137312	-0.12726392903310033	0.0	1.1938832810429363	-0.013250134950572014	0.0	1.2199224522642647	0.005093129126337745	0.0	1.0618617593505097	-0.13795796320247566	0.0	1.085421935533005	-0.4575174499008387	0.0	1.33537219205535	-0.6053948903513949	0.0	1.0969067538174593	-0.1624791691790013	0.0	1.1112656703393282	-0.43306762854819325	0.0	1.2292170497802917	-0.3910650519504619	0.0
9	0.30202702702702705	1.039490546256443	-0.6821959650253554	0.0	1.0381171018008686	-0.698623461718499	0.0	1.0839946197426262	-1.0560908059307927	0.0	0.925338134766415	-1.0891823730472652	0.0			0.0			0.0			0.0	1.0860776399382805	-0.6998624251313021	0.0	1.1223968912215168	-1.0469946188811179	0.0	0.8984064158780398	-1.0883611313514783	0.0			0.0			0.0	0.74603759765625	-1.06143896484375	0.0	1.0861185910773685	-0.1319640443191578	0.0	1.1889892255747776	-0.013356499100850617	0.0	1.212647164680266	0.0017564879615226347	0.0	1.052097606765821	-0.14480067468877025	0.0	1.0743805451133301	-0.45954366761287657	0.0	1.3296801087234402	-0.6045078391790856	0.0	1.1027427563520775	-0.1726311281093718	0.0	1.111829196804116	-0.4347693153558696	0.0	1.2292443108978892	-0.39268660825569096	0.0
10	0.3355855855855856	1.0396706950215824	-0.6828182064958899	0.0	1.0339497262839596	-0.6989807172928708	0.0	1.0779119021364787	-1.0567390948059552	0.0	0.9253381347708428	-1.0891823730485093	0.0			0.0			0.0			0.0	1.0868275038731496	-0.7008992109638615	0.0	1.1267065321924572	-1.048597758848103	0.0	0.8983983249110047	-1.0883587547623756	0.0			0.0			0.0	0.74603759765625	-1.06143896484375	0.0	1.081153473170176	-0.13728074719457378	0.0	1.1822307813211343	-0.01449848440085575	0.0	1.2041037983558962	-0.0011831423306625827	0.0	1.0415756589162533	-0.15214568912260681	0.0	1.0610947054646733	-0.4616074460446537	0.0	1.320234749635518	-0.6064836975144933	0.0	1.1056256759573881	-0.1831267430247663	0.0	1.1104424868278153	-0.43739336929661377	0.0	1.2283246286170069	-0.39455293372250894	0.0
11	0.3691441441441442	1.0389282687229102	-0.6839602915361845	0.0	1.0291178382371267	-0.6996492900513805	0.0	1.0712147386138953	-1.0576033656648238	0.0	0.9253381347781585	-1.0891823730504548	0.0			0.0			0.0			0.0	1.0859403219370782	-0.7024775137471012	0.0	1.129381715698549	-1.0506161974594577	0.0	0.8983898890790045	-1.0883575519948818	0.0			0.0			0.0	0.74603759765625	-1.06143896484375	0.0	1.0757645144862178	-0.14261882795727204	0.0	1.1743251422179322	-0.015746573799161626	0.0	1.194825076291511	-0.00434763266610283	0.0	1.0306378980905377	-0.15996263999602328	0.0	1.0459187314815446	-0.4638432482766297	0.0	1.307015376994375	-0.611436121780675	0.0	1.1060314282868773	-0.19387224346834886	0.0	1.107763240154112	-0.44122382202313076	0.0	1.2262783185506716	-0.39697283041807957	0.0
12	0.40270270270270275	1.0369974272881481	-0.6857886468598446	0.0	1.0234555871317093	-0.7006521850757494	0.0	1.0638755984351378	-1.0585321626318667	0.0	0.9253381347876886	-1.0891823730528283	0.0			0.0			0.0			0.0	1.0834863852052323	-0.7045365207957462	0.0	1.1289415485564616	-1.052652285653486	0.0	0.8983861317668456	-1.0883599789460194	0.0			0.0			0.0	0.74603759765625	-1.06143896484375	0.0	1.0703168030967523	-0.14752752714323375	0.0	1.1660785179948443	-0.016853314641138956	0.0	1.1852253401071633	-0.008469759394941608	0.0	1.0197183247840833	-0.16829603190458378	0.0	1.0292125794322484	-0.46639974249039445	0.0	1.2902620824143678	-0.6193554197250437	0.0	1.104585340488427	-0.2046451125794424	0.0	1.1045097279676632	-0.446562615493539	0.0	1.223176560979948	-0.4001671228699117	0.0
13	0.4362612612612613	1.0336201562901173	-0.6882722222708509	0.0	1.016662827435593	-0.7018124504863344	0.0	1.056579074013205	-1.059197411150727	0.0	0.9253381347963534	-1.0891823730546866	0.0			0.0			0.0			0.0	1.0792272841152184	-0.7066775915111781	0.0	1.1238378133967541	-1.0541303350685851	0.0	0.8983961639408476	-1.0883696124487556	0.0			0.0			0.0	0.74603759765625	-1.06143896484375	0.0	1.0650620400575772	-0.1518040179669637	0.0	1.158062292312616	-0.017842241054395986	0.0	1.1754062299428105	-0.013963448013577028	0.0	1.0091205225101294	-0.17711559357793533	0.0	1.0113523788208223	-0.46932312889618993	0.0	1.2703978282812942	-0.6299923553221657	0.0	1.1020276617322193	-0.21516610457987237	0.0	1.1012995333228754	-0.4532934087509331	0.0	1.2192503689851588	-0.40421033692022296	0.0
